<svg xmlns="http://www.w3.org/2000/svg" version="1.1" xmlns:xlink="http://www.w3.org/1999/xlink" width="512" height="512" x="0" y="0" viewBox="0 0 512 512" style="enable-background:new 0 0 512 512" xml:space="preserve" class=""><g><path fill="#4a696f" d="M211 512h-75v-30h45v-77h30z" opacity="1" data-original="#4a696f" class=""></path><path fill="#384949" d="M376 512h-75V405h30v77h45z" opacity="1" data-original="#384949" class=""></path><path fill="#dfe7f4" d="M76.084 78H437v30H76.084z" opacity="1" data-original="#dfe7f4" class=""></path><path fill="#c7cfe1" d="M256 78h181v30H256z" opacity="1" data-original="#c7cfe1" class=""></path><path fill="#ffb3b3" d="M301 405c-14.502 0-27.979-2.534-38.994-7.354L256 395.039l-6.006 2.607C238.979 402.466 225.502 405 211 405c-31.348 0-52.002-11.528-57.92-22.251L148.803 375H136c-24.814 0-45-20.186-45-45 0-16.084 8.789-31.04 22.91-39.009l8.848-4.995-1.377-10.063c-3.618-26.933 18.237-50.947 44.561-50.947 1.963 0 3.926.132 5.918.41l10.078 1.406 5.039-8.877c7.646-13.564 23.496-22.339 40.313-22.339 7.617 0 14.941 1.919 21.123 5.537l7.588 4.453 7.588-4.438c6.182-3.633 13.506-5.552 21.152-5.552 16.816 0 32.637 8.774 40.283 22.339l5.01 8.862 10.107-1.392a44.026 44.026 0 0 1 5.859-.396c26.267 0 48.245 23.943 44.619 50.933l-1.377 10.063 8.848 4.995C412.211 298.96 421 313.916 421 330c0 24.814-20.186 45-45 45h-12.803l-4.277 7.749C353.002 393.472 332.348 405 301 405z" opacity="1" data-original="#ffb3b3" class=""></path><path fill="#ff8080" d="M262.006 397.646C273.021 402.466 286.498 405 301 405c31.348 0 52.002-11.528 57.92-22.251l4.277-7.749H376c24.814 0 45-20.186 45-45 0-16.084-8.789-31.04-22.91-39.009l-8.848-4.995 1.377-10.063C394.245 248.943 372.266 225 346 225c-1.934 0-3.896.132-5.859.396l-10.107 1.392-5.01-8.862c-7.646-13.564-23.467-22.339-40.283-22.339-7.646 0-14.971 1.919-21.152 5.552L256 205.576v189.463z" opacity="1" data-original="#ff8080" class=""></path><path fill="#384949" d="M331 45h30v180h-30z" opacity="1" data-original="#384949" class=""></path><path fill="#4a696f" d="M151 45h30v180h-30z" opacity="1" data-original="#4a696f" class=""></path><path fill="#64e1dc" d="M90 180H0V0h90z" opacity="1" data-original="#64e1dc" class=""></path><path fill="#00c8c8" d="M512 180h-90V0h90z" opacity="1" data-original="#00c8c8" class=""></path><path fill="#ffcccc" d="M405.473 277.925c5.249-39.15-29.305-72.635-67.383-67.383-15.527-27.48-54.141-38.716-82.09-22.354-27.92-16.362-66.563-5.127-82.09 22.354-38.086-5.292-72.64 28.174-67.383 67.383C88.041 288.369 76 308.145 76 330c0 11.31 7.36 60 63.955 60 9.844 17.827 37.148 30 71.045 30 16.553 0 32.197-3.018 45-8.599 12.803 5.581 28.447 8.599 45 8.599 33.896 0 61.201-12.173 71.045-30C428.641 390 436 341.309 436 330c0-21.855-12.041-41.631-30.527-52.075zM166 375c0-.527 1.611-3.97 9.258-7.793l-13.359-26.836c-10.345 5.154-17.413 11.959-21.597 19.629H136c-16.553 0-30-13.462-30-30 0-16.764 14.171-30 30-30 7.998 0 15.527 3.12 21.211 8.789l21.211-21.211c-11.468-11.468-25.459-18.045-42.413-17.529 0-.016-.009-.033-.009-.049 0-20.229 21.211-35.728 41.133-27.788l.031.013-.002.002c7.412 2.959 13.418 8.818 16.465 16.084l27.656-11.66c-4.036-9.571-10.765-17.715-18.983-24.005 8.932-11.342 25.84-14.914 38.699-7.549v169.318c-8.6 3.3-18.715 5.587-30 5.587C181.967 390 166 378.735 166 375zm210-15h-4.301c-4.184-7.67-11.252-14.474-21.597-19.629l-13.359 26.836C344.389 371.03 346 374.473 346 375c0 3.735-15.967 15-45 15-11.285 0-21.4-2.287-30-5.587V215.096c12.843-7.348 29.702-3.814 38.643 7.46-2.1 1.599-4.226 3.17-6.094 5.037l.029.029a59.84 59.84 0 0 0-12.861 19.028l27.656 11.66c2.921-6.974 8.342-12.605 16.494-16.099C354.789 234.214 376 249.741 376 270c0 .02-.011.037-.011.057-16.965-.516-30.939 6.05-42.411 17.521l21.211 21.211C360.473 303.12 368.002 300 376 300c15.751 0 30 13.14 30 30 0 16.538-13.447 30-30 30z" opacity="1" data-original="#ffcccc" class=""></path><path fill="#ffcccc" d="M181 345v-30c8.262 0 15-6.724 15-15v-15h30v15c0 24.814-20.186 45-45 45z" opacity="1" data-original="#ffcccc" class=""></path><path fill="#ffb3b3" d="M331 345c-24.814 0-45-20.186-45-45v-15h30v15c0 8.276 6.738 15 15 15z" opacity="1" data-original="#ffb3b3" class=""></path><path fill="#ffb3b3" d="M372.045 390C428.641 390 436 341.309 436 330c0-21.855-12.041-41.631-30.527-52.075 5.25-39.15-29.306-72.636-67.383-67.383-15.527-27.48-54.141-38.716-82.09-22.354v223.213c12.803 5.581 28.447 8.599 45 8.599 33.896 0 61.201-12.173 71.045-30zM271 215.096c12.843-7.348 29.702-3.814 38.643 7.46-2.1 1.599-4.226 3.17-6.094 5.037l.029.029a59.84 59.84 0 0 0-12.861 19.028l27.656 11.66c2.921-6.974 8.342-12.605 16.494-16.099C354.789 234.214 376 249.741 376 270c0 .02-.011.037-.011.057-16.965-.516-30.939 6.05-42.411 17.521l21.211 21.211C360.473 303.12 368.002 300 376 300c15.751 0 30 13.14 30 30 0 16.538-13.447 30-30 30h-4.301c-4.184-7.67-11.252-14.474-21.597-19.629l-13.359 26.836C344.389 371.03 346 374.473 346 375c0 3.735-15.967 15-45 15-11.285 0-21.4-2.287-30-5.587z" opacity="1" data-original="#ffb3b3" class=""></path></g></svg>